<?xml version="1.0" encoding="UTF-8" standalone="no" ?>
<!DOCTYPE svg PUBLIC "-//W3C//DTD SVG 1.1//EN" "http://www.w3.org/Graphics/SVG/1.1/DTD/svg11.dtd">
<svg xmlns="http://www.w3.org/2000/svg" xmlns:xlink="http://www.w3.org/1999/xlink" version="1.1" width="386.61" height="326.403" xml:space="preserve">
<desc>Created with Fabric.js 1.6.0-rc.1</desc>
<defs></defs>
<g style="stroke: none; stroke-width: 1; stroke-dasharray: none; stroke-linecap: butt; stroke-linejoin: miter; stroke-miterlimit: 10; fill: none; fill-rule: nonzero; opacity: 1;" transform="translate(10 10) scale(0.61 0.61)" >
  <path d="M 300 98.6 l -262.3 113 h 524.5 L 300 98.6 l -262.3 113 h 524.5 L 300 98.6 z" style="stroke: none; stroke-width: 1; stroke-dasharray: none; stroke-linecap: butt; stroke-linejoin: miter; stroke-miterlimit: 10; fill: #42210B; fill-rule: nonzero; opacity: 1;" transform=" matrix(1 0 0 1 0 0) " stroke-linecap="round" />
  <path d="M 114.7 219.3 c 0 4.8 -3.9 8.7 -8.7 8.7 H 67.7 c -4.8 -0.1 -8.6 -4 -8.6 -8.8 c 0.1 -4.7 3.9 -8.5 8.6 -8.6 H 106 C 110.8 210.7 114.7 214.5 114.7 219.3 z M 114.7 431.4 c 0 4.8 -3.9 8.7 -8.7 8.7 c 0 0 0 0 0 0 H 67.7 c -4.8 -0.1 -8.6 -4 -8.6 -8.8 c 0.1 -4.7 3.9 -8.5 8.6 -8.6 H 106 C 110.8 422.7 114.7 426.6 114.7 431.4 z" style="stroke: none; stroke-width: 1; stroke-dasharray: none; stroke-linecap: butt; stroke-linejoin: miter; stroke-miterlimit: 10; fill: #42210B; fill-rule: nonzero; opacity: 1;" transform=" matrix(1 0 0 1 0 0) " stroke-linecap="round" />
  <path d="M 97.9 228 H 75.8 c -5.9 20.3 -9.8 56.3 -9.8 97.3 c 0 41.1 3.9 77.1 9.8 97.3 h 22.1 c 5.9 -20.3 9.8 -56.3 9.8 -97.3 C 107.7 284.3 103.8 248.3 97.9 228 L 97.9 228 z M 234.7 219.3 c 0 4.8 -3.9 8.7 -8.7 8.7 c 0 0 0 0 0 0 h -38.2 c -4.8 0 -8.7 -3.9 -8.7 -8.7 c 0 -4.8 3.9 -8.7 8.7 -8.7 H 226 C 230.8 210.7 234.7 214.5 234.7 219.3 C 234.7 219.3 234.7 219.3 234.7 219.3 z M 234.7 431.4 c 0 4.8 -3.9 8.7 -8.7 8.7 c 0 0 0 0 0 0 h -38.2 c -4.8 0 -8.7 -3.9 -8.7 -8.7 c 0 -4.8 3.9 -8.7 8.7 -8.7 H 226 C 230.8 422.7 234.7 426.6 234.7 431.4 z" style="stroke: none; stroke-width: 1; stroke-dasharray: none; stroke-linecap: butt; stroke-linejoin: miter; stroke-miterlimit: 10; fill: #42210B; fill-rule: nonzero; opacity: 1;" transform=" matrix(1 0 0 1 0 0) " stroke-linecap="round" />
  <path d="M 217.9 228 h -22.1 c -5.9 20.3 -9.8 56.3 -9.8 97.3 c 0 41.1 3.9 77.1 9.8 97.3 h 22.1 c 5.9 -20.3 9.8 -56.3 9.8 -97.3 C 227.7 284.3 223.8 248.3 217.9 228 L 217.9 228 z" style="stroke: none; stroke-width: 1; stroke-dasharray: none; stroke-linecap: butt; stroke-linejoin: miter; stroke-miterlimit: 10; fill: #42210B; fill-rule: nonzero; opacity: 1;" transform=" matrix(1 0 0 1 0 0) " stroke-linecap="round" />
  <path d="M 427.7 219.3 c 0 4.8 -3.9 8.7 -8.7 8.7 h -38.2 c -4.8 -0.1 -8.6 -4 -8.6 -8.8 c 0.1 -4.7 3.9 -8.5 8.6 -8.6 H 419 C 423.8 210.7 427.7 214.5 427.7 219.3 z M 427.7 431.4 c 0 4.8 -3.9 8.7 -8.7 8.7 l 0 0 h -38.2 c -4.8 -0.1 -8.6 -4 -8.6 -8.8 c 0.1 -4.7 3.9 -8.5 8.6 -8.6 H 419 C 423.8 422.7 427.7 426.6 427.7 431.4 z" style="stroke: none; stroke-width: 1; stroke-dasharray: none; stroke-linecap: butt; stroke-linejoin: miter; stroke-miterlimit: 10; fill: #42210B; fill-rule: nonzero; opacity: 1;" transform=" matrix(1 0 0 1 0 0) " stroke-linecap="round" />
  <path d="M 411 228 h -22.1 c -5.9 20.3 -9.8 56.3 -9.8 97.3 c 0 41.1 3.9 77.1 9.8 97.3 H 411 c 5.9 -20.3 9.8 -56.3 9.8 -97.3 C 420.8 284.3 416.9 248.3 411 228 L 411 228 z" style="stroke: none; stroke-width: 1; stroke-dasharray: none; stroke-linecap: butt; stroke-linejoin: miter; stroke-miterlimit: 10; fill: #42210B; fill-rule: nonzero; opacity: 1;" transform=" matrix(1 0 0 1 0 0) " stroke-linecap="round" />
  <path d="M 547.8 219.3 c 0 4.8 -3.9 8.7 -8.7 8.7 c 0 0 0 0 0 0 h -38.2 c -4.8 0 -8.7 -3.9 -8.7 -8.7 c 0 -4.8 3.9 -8.7 8.7 -8.7 l 0 0 h 38.2 C 543.9 210.7 547.8 214.5 547.8 219.3 C 547.8 219.3 547.8 219.3 547.8 219.3 z M 547.8 431.4 c 0 4.8 -3.9 8.7 -8.7 8.7 c 0 0 0 0 0 0 h -38.2 c -4.8 0 -8.7 -3.9 -8.7 -8.7 c 0 -4.8 3.9 -8.7 8.7 -8.7 h 38.2 C 543.9 422.7 547.8 426.6 547.8 431.4 z" style="stroke: none; stroke-width: 1; stroke-dasharray: none; stroke-linecap: butt; stroke-linejoin: miter; stroke-miterlimit: 10; fill: #42210B; fill-rule: nonzero; opacity: 1;" transform=" matrix(1 0 0 1 0 0) " stroke-linecap="round" />
  <path d="M 531 228 h -22.1 c -5.9 20.3 -9.8 56.3 -9.8 97.3 c 0 41.1 3.9 77.1 9.8 97.3 H 531 c 5.9 -20.3 9.8 -56.3 9.8 -97.3 C 540.8 284.3 536.9 248.3 531 228 L 531 228 z" style="stroke: none; stroke-width: 1; stroke-dasharray: none; stroke-linecap: butt; stroke-linejoin: miter; stroke-miterlimit: 10; fill: #42210B; fill-rule: nonzero; opacity: 1;" transform=" matrix(1 0 0 1 0 0) " stroke-linecap="round" />
  <path d="M 37.3 440.1 h 525.4 v 20.4 H 37.3 V 440.1 z M 18.6 460.5 h 562.9 v 20.4 H 18.6 V 460.5 z" style="stroke: none; stroke-width: 1; stroke-dasharray: none; stroke-linecap: butt; stroke-linejoin: miter; stroke-miterlimit: 10; fill: #42210B; fill-rule: nonzero; opacity: 1;" transform=" matrix(1 0 0 1 0 0) " stroke-linecap="round" />
  <path d="M 0 480.9 h 600 v 20.4 H 0 V 480.9 z" style="stroke: none; stroke-width: 1; stroke-dasharray: none; stroke-linecap: butt; stroke-linejoin: miter; stroke-miterlimit: 10; fill: #42210B; fill-rule: nonzero; opacity: 1;" transform=" matrix(1 0 0 1 0 0) " stroke-linecap="round" />
  <circle cx="300" cy="157.5" r="34.3" style="stroke: none; stroke-width: 1; stroke-dasharray: none; stroke-linecap: butt; stroke-linejoin: miter; stroke-miterlimit: 10; fill: #FBB03B; fill-rule: nonzero; opacity: 1;" transform="  matrix(1 0 0 1 0 0) "/>
</g>
<g style="stroke: none; stroke-width: 1; stroke-dasharray: none; stroke-linecap: butt; stroke-linejoin: miter; stroke-miterlimit: 10; fill: none; fill-rule: nonzero; opacity: 1;" transform="translate(144 160.79) scale(0.21 0.21)" >
  <path d="M 287.538 99.155 l 60.752 -72.912 c 4.816 -5.792 4.96 -14.144 0.32 -20.08 c -4.608 -5.936 -12.768 -7.824 -19.568 -4.576 c -37.968 18.336 -108.128 18.336 -146.096 0 c -6.8 -3.264 -14.944 -1.376 -19.568 4.576 c -4.64 5.936 -4.496 14.304 0.32 20.08 l 60.752 72.912 c -73.152 14.688 -128.448 79.408 -128.448 156.848 v 240 c 0 8.832 7.168 16 16 16 h 288 c 8.832 0 16 -7.168 16 -16 v -240 C 416.002 178.563 360.706 113.843 287.538 99.155 z M 221.49 45.587 c 22.192 3.184 46.832 3.184 69.024 0 l -34.512 41.424 L 221.49 45.587 z M 384.002 480.003 h -256 v -224 c 0 -70.576 57.424 -128 128 -128 s 128 57.424 128 128 V 480.003 z" style="stroke: none; stroke-width: 1; stroke-dasharray: none; stroke-linecap: butt; stroke-linejoin: miter; stroke-miterlimit: 10; fill: rgb(0,0,0); fill-rule: nonzero; opacity: 1;" transform=" matrix(1 0 0 1 0 0) " stroke-linecap="round" />
  <path d="M 268.882 303.571 c -3.648 -0.72 -7.296 -1.296 -10.912 -1.84 c -9.696 -1.488 -18.064 -2.768 -23.856 -7.328 c -6.432 -5.056 -10.112 -12.112 -10.112 -19.392 c 0 -10.56 8.688 -20.816 21.136 -24.944 c 9.088 -2.992 21.488 -2.528 33.456 -2.064 c 4.592 0.176 9.104 0.336 13.408 0.336 c 8.832 0 16 -7.168 16 -16 c 0 -8.832 -7.168 -16 -16 -16 c -3.92 0 -8 -0.16 -12.176 -0.32 c -2.544 -0.096 -5.184 -0.176 -7.824 -0.24 v -7.776 c 0 -8.832 -7.168 -16 -16 -16 c -8.832 0 -16 7.168 -16 16 v 10.512 c -1.632 0.416 -3.312 0.656 -4.928 1.184 c -25.76 8.528 -43.072 30.752 -43.072 55.312 c 0 17.152 8.144 33.392 22.336 44.56 c 12.416 9.76 26.416 11.904 38.784 13.792 c 3.152 0.48 6.336 0.976 9.52 1.6 c 15.168 3.024 25.36 13.216 25.36 25.376 c 0 9.04 -5.744 17.68 -15.008 22.56 c -10.032 5.296 -26.304 4.768 -40.64 4.352 c -4.272 -0.128 -8.416 -0.256 -12.352 -0.256 c -8.832 0 -16 7.168 -16 16 c 0 8.832 7.168 16 16 16 c 3.632 0 7.456 0.112 11.376 0.24 c 2.8 0.08 5.728 0.112 8.624 0.176 v 12.592 c 0 8.832 7.168 16 16 16 c 8.832 0 16 -7.168 16 -16 v -15.2 c 5.472 -1.264 10.864 -2.912 15.92 -5.584 c 19.792 -10.432 32.08 -29.92 32.08 -50.88 C 320.002 332.915 298.978 309.571 268.882 303.571 z" style="stroke: none; stroke-width: 1; stroke-dasharray: none; stroke-linecap: butt; stroke-linejoin: miter; stroke-miterlimit: 10; fill: rgb(0,0,0); fill-rule: nonzero; opacity: 1;" transform=" matrix(1 0 0 1 0 0) " stroke-linecap="round" />
</g>
</svg>